<svg width="143" height="114" viewBox="0 0 143 114" fill="none" xmlns="http://www.w3.org/2000/svg">
<path d="M54.6943 2.3599C38.0277 7.02657 23.4943 19.4266 15.2277 35.9599C10.561 45.6932 10.161 47.1599 9.76101 60.3599C9.36101 71.5599 9.89435 75.9599 11.8943 81.6932L14.2943 89.0266L7.62768 92.3599C-5.30566 98.8932 0.294344 105.56 22.8277 110.493C38.561 113.96 91.0943 114.76 110.828 111.827C127.094 109.56 139.628 105.293 142.028 101.427C144.428 97.5599 141.761 94.7599 130.694 89.5599C130.161 89.2932 130.828 84.8932 132.161 79.8266C136.428 63.5599 134.961 48.6266 127.628 34.0932C120.428 19.9599 104.961 7.1599 89.6277 2.62657C80.961 0.0932319 63.4943 -0.0401014 54.6943 2.3599ZM82.961 3.1599C130.028 12.0932 148.294 68.2266 116.028 104.893C111.628 109.96 111.228 110.093 98.8277 111.16C82.4277 112.76 60.0277 112.76 44.8277 111.16L32.8277 109.96L26.561 103.293C5.22768 80.2266 6.16101 42.7599 28.6943 20.2266C43.2277 5.69323 63.2277 -0.573435 82.961 3.1599ZM18.4277 96.2266C20.161 98.8932 22.961 103.027 24.8277 105.427L28.2943 109.56L22.561 108.36C6.42768 104.76 -1.03899 100.227 3.22768 96.6266C4.96101 95.2932 13.361 91.2932 14.8277 91.1599C15.2277 91.1599 16.8277 93.4266 18.4277 96.2266ZM140.028 97.1599C142.961 100.093 139.894 102.76 129.894 105.827C115.761 110.227 115.228 109.827 122.428 99.9599L128.694 91.2932L133.361 93.2932C136.028 94.3599 138.961 96.0932 140.028 97.1599Z" fill="black"/>
<path d="M36.8276 24.6267C23.8943 35.96 30.1609 53.0267 44.6943 45.8267C51.2276 42.6267 54.6943 38.0933 55.7609 31.8267C57.6276 20.6267 46.2943 16.36 36.8276 24.6267ZM50.9609 23.16C52.8276 24.2267 53.4943 25.96 53.4943 30.0933C53.4943 34.6267 52.6943 36.36 48.2943 40.6267C40.0276 48.8933 32.1609 47.56 32.1609 37.8267C32.1609 32.2267 34.8276 27.96 40.6943 24.36C45.3609 21.4267 47.2276 21.2933 50.9609 23.16Z" fill="black"/>
</svg>
